<?xml version="1.0" encoding="us-ascii" standalone="no"?><svg xmlns="http://www.w3.org/2000/svg" xmlns:xlink="http://www.w3.org/1999/xlink" contentStyleType="text/css" height="1556px" preserveAspectRatio="none" style="width:5359px;height:1556px;background:#FFFFFF;" version="1.1" viewBox="0 0 5359 1556" width="5359px" zoomAndPan="magnify"><defs/><g><!--class Composable--><g id="elem_Composable"><rect codeLine="1" fill="#F1F1F1" height="194.6719" id="Composable" rx="2.5" ry="2.5" style="stroke:#181818;stroke-width:0.5;" width="532" x="2626.5" y="386"/><ellipse cx="2843.75" cy="402" fill="#B4A7E5" rx="11" ry="11" style="stroke:#181818;stroke-width:1.0;"/><path d="M2844.7031,398.7813 L2846.4219,398.7813 C2846.8125,398.7813 2847,398.75 2847.125,398.6719 C2847.3906,398.5156 2847.5313,398.2344 2847.5313,397.9375 C2847.5313,397.6719 2847.4219,397.4063 2847.1875,397.2344 C2847.0156,397.125 2846.875,397.0938 2846.4219,397.0938 L2841.2813,397.0938 C2840.8438,397.0938 2840.7188,397.1094 2840.5625,397.2031 C2840.3125,397.3594 2840.1563,397.6563 2840.1563,397.9375 C2840.1563,398.2188 2840.2969,398.4688 2840.5156,398.6406 C2840.6719,398.75 2840.8594,398.7813 2841.2813,398.7813 L2843,398.7813 L2843,405.2969 L2841.2813,405.2969 C2840.8438,405.2969 2840.7188,405.3125 2840.5625,405.4219 C2840.3125,405.5781 2840.1563,405.8594 2840.1563,406.1563 C2840.1563,406.4063 2840.2969,406.6719 2840.5156,406.8281 C2840.6719,406.9531 2840.875,407 2841.2813,407 L2846.4219,407 C2847.1719,407 2847.5313,406.7188 2847.5313,406.1563 C2847.5313,405.875 2847.4219,405.625 2847.1875,405.4531 C2847.0156,405.3281 2846.875,405.2969 2846.4219,405.2969 L2844.7031,405.2969 L2844.7031,398.7813 Z " fill="#000000"/><text fill="#000000" font-family="sans-serif" font-size="14" font-style="italic" lengthAdjust="spacing" textLength="89" x="2864.25" y="406.8467">Composable</text><line style="stroke:#181818;stroke-width:0.5;" x1="2627.5" x2="3157.5" y1="418" y2="418"/><line style="stroke:#181818;stroke-width:0.5;" x1="2627.5" x2="3157.5" y1="426" y2="426"/><text fill="#000000" font-family="sans-serif" font-size="14" lengthAdjust="spacing" textLength="290" x="2632.5" y="442.9951">SplashScreen(navController, isLoggedIn)</text><text fill="#000000" font-family="sans-serif" font-size="14" lengthAdjust="spacing" textLength="251" x="2632.5" y="459.292">PrivacyPolicyScreen(navController)</text><text fill="#000000" font-family="sans-serif" font-size="14" lengthAdjust="spacing" textLength="358" x="2632.5" y="475.5889">LoginScreen(onNavToHomePage, loginViewModel)</text><text fill="#000000" font-family="sans-serif" font-size="14" lengthAdjust="spacing" textLength="513" x="2632.5" y="491.8857">SignUpScreen(onNavToHomePage, onNavToLoginPage, loginViewModel)</text><text fill="#000000" font-family="sans-serif" font-size="14" lengthAdjust="spacing" textLength="520" x="2632.5" y="508.1826">Home(homeViewModel, onNoteClick, navToDetailPage, navToLoginPage)</text><text fill="#000000" font-family="sans-serif" font-size="14" lengthAdjust="spacing" textLength="277" x="2632.5" y="524.4795">NoteItem(notes, onLongClick, onClick)</text><text fill="#000000" font-family="sans-serif" font-size="14" lengthAdjust="spacing" textLength="250" x="2632.5" y="540.7764">GoogleSignInButton(signInClicked)</text><text fill="#000000" font-family="sans-serif" font-size="14" lengthAdjust="spacing" textLength="365" x="2632.5" y="557.0732">DetailScreen(detailViewModel, noteId, onNavigate)</text><text fill="#000000" font-family="sans-serif" font-size="14" lengthAdjust="spacing" textLength="179" x="2632.5" y="573.3701">ColorItem(color, onClick)</text></g><!--class SplashScreen--><g id="elem_SplashScreen"><rect codeLine="198" fill="#F1F1F1" height="96.8906" id="SplashScreen" rx="2.5" ry="2.5" style="stroke:#181818;stroke-width:0.5;" width="524" x="1134.5" y="657"/><ellipse cx="1343.75" cy="673" fill="#ADD1B2" rx="11" ry="11" style="stroke:#181818;stroke-width:1.0;"/><path d="M1346.0938,668.6719 C1345.1563,668.2344 1344.5625,668.0938 1343.6875,668.0938 C1341.0625,668.0938 1339.0625,670.1719 1339.0625,672.8906 L1339.0625,674.0156 C1339.0625,676.5938 1341.1719,678.4844 1344.0625,678.4844 C1345.2813,678.4844 1346.4375,678.1875 1347.1875,677.6406 C1347.7656,677.2344 1348.0938,676.7813 1348.0938,676.3906 C1348.0938,675.9375 1347.7031,675.5469 1347.2344,675.5469 C1347.0156,675.5469 1346.8125,675.625 1346.625,675.8125 C1346.1719,676.2969 1346.1719,676.2969 1345.9844,676.3906 C1345.5625,676.6563 1344.875,676.7813 1344.1094,676.7813 C1342.0625,676.7813 1340.7656,675.6875 1340.7656,673.9844 L1340.7656,672.8906 C1340.7656,671.1094 1342.0156,669.7969 1343.75,669.7969 C1344.3281,669.7969 1344.9375,669.9531 1345.4063,670.2031 C1345.8906,670.4844 1346.0625,670.7031 1346.1563,671.1094 C1346.2188,671.5156 1346.25,671.6406 1346.3906,671.7656 C1346.5313,671.9063 1346.7656,672.0156 1346.9844,672.0156 C1347.25,672.0156 1347.5156,671.875 1347.6875,671.6563 C1347.7969,671.5 1347.8281,671.3125 1347.8281,670.8906 L1347.8281,669.4688 C1347.8281,669.0313 1347.8125,668.9063 1347.7188,668.75 C1347.5625,668.4844 1347.2813,668.3438 1346.9844,668.3438 C1346.6875,668.3438 1346.4844,668.4375 1346.2656,668.75 L1346.0938,668.6719 Z " fill="#000000"/><text fill="#000000" font-family="sans-serif" font-size="14" lengthAdjust="spacing" textLength="97" x="1364.25" y="677.8467">SplashScreen</text><line style="stroke:#181818;stroke-width:0.5;" x1="1135.5" x2="1657.5" y1="689" y2="689"/><text fill="#000000" font-family="sans-serif" font-size="14" lengthAdjust="spacing" textLength="98" x="1140.5" y="705.9951">navController</text><text fill="#000000" font-family="sans-serif" font-size="14" lengthAdjust="spacing" textLength="77" x="1140.5" y="722.292">isLoggedIn</text><line style="stroke:#181818;stroke-width:0.5;" x1="1135.5" x2="1657.5" y1="729.5938" y2="729.5938"/><ellipse cx="1145.5" cy="743.2422" fill="#84BE84" rx="3" ry="3" style="stroke:#038048;stroke-width:1.0;"/><text fill="#000000" font-family="sans-serif" font-size="14" lengthAdjust="spacing" textLength="498" x="1154.5" y="746.5889">SplashScreen(navController: NavHostController, isLoggedIn: Boolean)</text></g><!--class PrivacyPolicyScreen--><g id="elem_PrivacyPolicyScreen"><rect codeLine="190" fill="#F1F1F1" height="80.5938" id="PrivacyPolicyScreen" rx="2.5" ry="2.5" style="stroke:#181818;stroke-width:0.5;" width="385" x="1694" y="665"/><ellipse cx="1810.75" cy="681" fill="#ADD1B2" rx="11" ry="11" style="stroke:#181818;stroke-width:1.0;"/><path d="M1813.0938,676.6719 C1812.1563,676.2344 1811.5625,676.0938 1810.6875,676.0938 C1808.0625,676.0938 1806.0625,678.1719 1806.0625,680.8906 L1806.0625,682.0156 C1806.0625,684.5938 1808.1719,686.4844 1811.0625,686.4844 C1812.2813,686.4844 1813.4375,686.1875 1814.1875,685.6406 C1814.7656,685.2344 1815.0938,684.7813 1815.0938,684.3906 C1815.0938,683.9375 1814.7031,683.5469 1814.2344,683.5469 C1814.0156,683.5469 1813.8125,683.625 1813.625,683.8125 C1813.1719,684.2969 1813.1719,684.2969 1812.9844,684.3906 C1812.5625,684.6563 1811.875,684.7813 1811.1094,684.7813 C1809.0625,684.7813 1807.7656,683.6875 1807.7656,681.9844 L1807.7656,680.8906 C1807.7656,679.1094 1809.0156,677.7969 1810.75,677.7969 C1811.3281,677.7969 1811.9375,677.9531 1812.4063,678.2031 C1812.8906,678.4844 1813.0625,678.7031 1813.1563,679.1094 C1813.2188,679.5156 1813.25,679.6406 1813.3906,679.7656 C1813.5313,679.9063 1813.7656,680.0156 1813.9844,680.0156 C1814.25,680.0156 1814.5156,679.875 1814.6875,679.6563 C1814.7969,679.5 1814.8281,679.3125 1814.8281,678.8906 L1814.8281,677.4688 C1814.8281,677.0313 1814.8125,676.9063 1814.7188,676.75 C1814.5625,676.4844 1814.2813,676.3438 1813.9844,676.3438 C1813.6875,676.3438 1813.4844,676.4375 1813.2656,676.75 L1813.0938,676.6719 Z " fill="#000000"/><text fill="#000000" font-family="sans-serif" font-size="14" lengthAdjust="spacing" textLength="143" x="1831.25" y="685.8467">PrivacyPolicyScreen</text><line style="stroke:#181818;stroke-width:0.5;" x1="1695" x2="2078" y1="697" y2="697"/><text fill="#000000" font-family="sans-serif" font-size="14" lengthAdjust="spacing" textLength="98" x="1700" y="713.9951">navController</text><line style="stroke:#181818;stroke-width:0.5;" x1="1695" x2="2078" y1="721.2969" y2="721.2969"/><ellipse cx="1705" cy="734.9453" fill="#84BE84" rx="3" ry="3" style="stroke:#038048;stroke-width:1.0;"/><text fill="#000000" font-family="sans-serif" font-size="14" lengthAdjust="spacing" textLength="359" x="1714" y="738.292">PrivacyPolicyScreen(navController: NavController)</text></g><!--class LoginScreen--><g id="elem_LoginScreen"><rect codeLine="139" fill="#F1F1F1" height="129.4844" id="LoginScreen" rx="2.5" ry="2.5" style="stroke:#181818;stroke-width:0.5;" width="1280" x="3552.5" y="879"/><ellipse cx="4143.75" cy="895" fill="#ADD1B2" rx="11" ry="11" style="stroke:#181818;stroke-width:1.0;"/><path d="M4146.0938,890.6719 C4145.1563,890.2344 4144.5625,890.0938 4143.6875,890.0938 C4141.0625,890.0938 4139.0625,892.1719 4139.0625,894.8906 L4139.0625,896.0156 C4139.0625,898.5938 4141.1719,900.4844 4144.0625,900.4844 C4145.2813,900.4844 4146.4375,900.1875 4147.1875,899.6406 C4147.7656,899.2344 4148.0938,898.7813 4148.0938,898.3906 C4148.0938,897.9375 4147.7031,897.5469 4147.2344,897.5469 C4147.0156,897.5469 4146.8125,897.625 4146.625,897.8125 C4146.1719,898.2969 4146.1719,898.2969 4145.9844,898.3906 C4145.5625,898.6563 4144.875,898.7813 4144.1094,898.7813 C4142.0625,898.7813 4140.7656,897.6875 4140.7656,895.9844 L4140.7656,894.8906 C4140.7656,893.1094 4142.0156,891.7969 4143.75,891.7969 C4144.3281,891.7969 4144.9375,891.9531 4145.4063,892.2031 C4145.8906,892.4844 4146.0625,892.7031 4146.1563,893.1094 C4146.2188,893.5156 4146.25,893.6406 4146.3906,893.7656 C4146.5313,893.9063 4146.7656,894.0156 4146.9844,894.0156 C4147.25,894.0156 4147.5156,893.875 4147.6875,893.6563 C4147.7969,893.5 4147.8281,893.3125 4147.8281,892.8906 L4147.8281,891.4688 C4147.8281,891.0313 4147.8125,890.9063 4147.7188,890.75 C4147.5625,890.4844 4147.2813,890.3438 4146.9844,890.3438 C4146.6875,890.3438 4146.4844,890.4375 4146.2656,890.75 L4146.0938,890.6719 Z " fill="#000000"/><text fill="#000000" font-family="sans-serif" font-size="14" lengthAdjust="spacing" textLength="89" x="4164.25" y="899.8467">LoginScreen</text><line style="stroke:#181818;stroke-width:0.5;" x1="3553.5" x2="4831.5" y1="911" y2="911"/><text fill="#000000" font-family="sans-serif" font-size="14" lengthAdjust="spacing" textLength="98" x="3558.5" y="927.9951">navController</text><text fill="#000000" font-family="sans-serif" font-size="14" lengthAdjust="spacing" textLength="112" x="3558.5" y="944.292">loginViewModel</text><text fill="#000000" font-family="sans-serif" font-size="14" lengthAdjust="spacing" textLength="139" x="3558.5" y="960.5889">onNavToHomePage</text><text fill="#000000" font-family="sans-serif" font-size="14" lengthAdjust="spacing" textLength="147" x="3558.5" y="976.8857">onNavToSignUpPage</text><line style="stroke:#181818;stroke-width:0.5;" x1="3553.5" x2="4831.5" y1="984.1875" y2="984.1875"/><ellipse cx="3563.5" cy="997.8359" fill="#84BE84" rx="3" ry="3" style="stroke:#038048;stroke-width:1.0;"/><text fill="#000000" font-family="sans-serif" font-size="14" lengthAdjust="spacing" textLength="1254" x="3572.5" y="1001.1826">LoginScreen(navController: NavController = rememberNavController(), loginViewModel: LoginViewModel? = null, onNavToHomePage: () -&gt; Unit, onNavToSignUpPage: () -&gt; Unit)</text></g><!--class SignUpScreen--><g id="elem_SignUpScreen"><rect codeLine="167" fill="#F1F1F1" height="113.1875" id="SignUpScreen" rx="2.5" ry="2.5" style="stroke:#181818;stroke-width:0.5;" width="861" x="4491" y="1206.5"/><ellipse cx="4867.25" cy="1222.5" fill="#ADD1B2" rx="11" ry="11" style="stroke:#181818;stroke-width:1.0;"/><path d="M4869.5938,1218.1719 C4868.6563,1217.7344 4868.0625,1217.5938 4867.1875,1217.5938 C4864.5625,1217.5938 4862.5625,1219.6719 4862.5625,1222.3906 L4862.5625,1223.5156 C4862.5625,1226.0938 4864.6719,1227.9844 4867.5625,1227.9844 C4868.7813,1227.9844 4869.9375,1227.6875 4870.6875,1227.1406 C4871.2656,1226.7344 4871.5938,1226.2813 4871.5938,1225.8906 C4871.5938,1225.4375 4871.2031,1225.0469 4870.7344,1225.0469 C4870.5156,1225.0469 4870.3125,1225.125 4870.125,1225.3125 C4869.6719,1225.7969 4869.6719,1225.7969 4869.4844,1225.8906 C4869.0625,1226.1563 4868.375,1226.2813 4867.6094,1226.2813 C4865.5625,1226.2813 4864.2656,1225.1875 4864.2656,1223.4844 L4864.2656,1222.3906 C4864.2656,1220.6094 4865.5156,1219.2969 4867.25,1219.2969 C4867.8281,1219.2969 4868.4375,1219.4531 4868.9063,1219.7031 C4869.3906,1219.9844 4869.5625,1220.2031 4869.6563,1220.6094 C4869.7188,1221.0156 4869.75,1221.1406 4869.8906,1221.2656 C4870.0313,1221.4063 4870.2656,1221.5156 4870.4844,1221.5156 C4870.75,1221.5156 4871.0156,1221.375 4871.1875,1221.1563 C4871.2969,1221 4871.3281,1220.8125 4871.3281,1220.3906 L4871.3281,1218.9688 C4871.3281,1218.5313 4871.3125,1218.4063 4871.2188,1218.25 C4871.0625,1217.9844 4870.7813,1217.8438 4870.4844,1217.8438 C4870.1875,1217.8438 4869.9844,1217.9375 4869.7656,1218.25 L4869.5938,1218.1719 Z " fill="#000000"/><text fill="#000000" font-family="sans-serif" font-size="14" lengthAdjust="spacing" textLength="100" x="4887.75" y="1227.3467">SignUpScreen</text><line style="stroke:#181818;stroke-width:0.5;" x1="4492" x2="5351" y1="1238.5" y2="1238.5"/><text fill="#000000" font-family="sans-serif" font-size="14" lengthAdjust="spacing" textLength="112" x="4497" y="1255.4951">loginViewModel</text><text fill="#000000" font-family="sans-serif" font-size="14" lengthAdjust="spacing" textLength="139" x="4497" y="1271.792">onNavToHomePage</text><text fill="#000000" font-family="sans-serif" font-size="14" lengthAdjust="spacing" textLength="136" x="4497" y="1288.0889">onNavToLoginPage</text><line style="stroke:#181818;stroke-width:0.5;" x1="4492" x2="5351" y1="1295.3906" y2="1295.3906"/><ellipse cx="4502" cy="1309.0391" fill="#84BE84" rx="3" ry="3" style="stroke:#038048;stroke-width:1.0;"/><text fill="#000000" font-family="sans-serif" font-size="14" lengthAdjust="spacing" textLength="835" x="4511" y="1312.3857">SignUpScreen(loginViewModel: LoginViewModel? = null, onNavToHomePage: () -&gt; Unit, onNavToLoginPage: () -&gt; Unit)</text></g><!--class Home--><g id="elem_Home"><rect codeLine="105" fill="#F1F1F1" height="129.4844" id="Home" rx="2.5" ry="2.5" style="stroke:#181818;stroke-width:0.5;" width="966" x="2945.5" y="641"/><ellipse cx="3403.25" cy="657" fill="#ADD1B2" rx="11" ry="11" style="stroke:#181818;stroke-width:1.0;"/><path d="M3405.5938,652.6719 C3404.6563,652.2344 3404.0625,652.0938 3403.1875,652.0938 C3400.5625,652.0938 3398.5625,654.1719 3398.5625,656.8906 L3398.5625,658.0156 C3398.5625,660.5938 3400.6719,662.4844 3403.5625,662.4844 C3404.7813,662.4844 3405.9375,662.1875 3406.6875,661.6406 C3407.2656,661.2344 3407.5938,660.7813 3407.5938,660.3906 C3407.5938,659.9375 3407.2031,659.5469 3406.7344,659.5469 C3406.5156,659.5469 3406.3125,659.625 3406.125,659.8125 C3405.6719,660.2969 3405.6719,660.2969 3405.4844,660.3906 C3405.0625,660.6563 3404.375,660.7813 3403.6094,660.7813 C3401.5625,660.7813 3400.2656,659.6875 3400.2656,657.9844 L3400.2656,656.8906 C3400.2656,655.1094 3401.5156,653.7969 3403.25,653.7969 C3403.8281,653.7969 3404.4375,653.9531 3404.9063,654.2031 C3405.3906,654.4844 3405.5625,654.7031 3405.6563,655.1094 C3405.7188,655.5156 3405.75,655.6406 3405.8906,655.7656 C3406.0313,655.9063 3406.2656,656.0156 3406.4844,656.0156 C3406.75,656.0156 3407.0156,655.875 3407.1875,655.6563 C3407.2969,655.5 3407.3281,655.3125 3407.3281,654.8906 L3407.3281,653.4688 C3407.3281,653.0313 3407.3125,652.9063 3407.2188,652.75 C3407.0625,652.4844 3406.7813,652.3438 3406.4844,652.3438 C3406.1875,652.3438 3405.9844,652.4375 3405.7656,652.75 L3405.5938,652.6719 Z " fill="#000000"/><text fill="#000000" font-family="sans-serif" font-size="14" lengthAdjust="spacing" textLength="42" x="3423.75" y="661.8467">Home</text><line style="stroke:#181818;stroke-width:0.5;" x1="2946.5" x2="3910.5" y1="673" y2="673"/><text fill="#000000" font-family="sans-serif" font-size="14" lengthAdjust="spacing" textLength="118" x="2951.5" y="689.9951">homeViewModel</text><text fill="#000000" font-family="sans-serif" font-size="14" lengthAdjust="spacing" textLength="88" x="2951.5" y="706.292">onNoteClick</text><text fill="#000000" font-family="sans-serif" font-size="14" lengthAdjust="spacing" textLength="121" x="2951.5" y="722.5889">navToDetailPage</text><text fill="#000000" font-family="sans-serif" font-size="14" lengthAdjust="spacing" textLength="117" x="2951.5" y="738.8857">navToLoginPage</text><line style="stroke:#181818;stroke-width:0.5;" x1="2946.5" x2="3910.5" y1="746.1875" y2="746.1875"/><ellipse cx="2956.5" cy="759.8359" fill="#84BE84" rx="3" ry="3" style="stroke:#038048;stroke-width:1.0;"/><text fill="#000000" font-family="sans-serif" font-size="14" lengthAdjust="spacing" textLength="940" x="2965.5" y="763.1826">Home(homeViewModel: HomeViewModel?, onNoteClick: (id: String) -&gt; Unit, navToDetailPage: () -&gt; Unit, navToLoginPage: () -&gt; Unit)</text></g><!--class NoteItem--><g id="elem_NoteItem"><rect codeLine="126" fill="#F1F1F1" height="48" id="NoteItem" rx="2.5" ry="2.5" style="stroke:#181818;stroke-width:0.5;" width="101" x="2917" y="919.5"/><ellipse cx="2932" cy="935.5" fill="#ADD1B2" rx="11" ry="11" style="stroke:#181818;stroke-width:1.0;"/><path d="M2934.3438,931.1719 C2933.4063,930.7344 2932.8125,930.5938 2931.9375,930.5938 C2929.3125,930.5938 2927.3125,932.6719 2927.3125,935.3906 L2927.3125,936.5156 C2927.3125,939.0938 2929.4219,940.9844 2932.3125,940.9844 C2933.5313,940.9844 2934.6875,940.6875 2935.4375,940.1406 C2936.0156,939.7344 2936.3438,939.2813 2936.3438,938.8906 C2936.3438,938.4375 2935.9531,938.0469 2935.4844,938.0469 C2935.2656,938.0469 2935.0625,938.125 2934.875,938.3125 C2934.4219,938.7969 2934.4219,938.7969 2934.2344,938.8906 C2933.8125,939.1563 2933.125,939.2813 2932.3594,939.2813 C2930.3125,939.2813 2929.0156,938.1875 2929.0156,936.4844 L2929.0156,935.3906 C2929.0156,933.6094 2930.2656,932.2969 2932,932.2969 C2932.5781,932.2969 2933.1875,932.4531 2933.6563,932.7031 C2934.1406,932.9844 2934.3125,933.2031 2934.4063,933.6094 C2934.4688,934.0156 2934.5,934.1406 2934.6406,934.2656 C2934.7813,934.4063 2935.0156,934.5156 2935.2344,934.5156 C2935.5,934.5156 2935.7656,934.375 2935.9375,934.1563 C2936.0469,934 2936.0781,933.8125 2936.0781,933.3906 L2936.0781,931.9688 C2936.0781,931.5313 2936.0625,931.4063 2935.9688,931.25 C2935.8125,930.9844 2935.5313,930.8438 2935.2344,930.8438 C2934.9375,930.8438 2934.7344,930.9375 2934.5156,931.25 L2934.3438,931.1719 Z " fill="#000000"/><text fill="#000000" font-family="sans-serif" font-size="14" lengthAdjust="spacing" textLength="69" x="2946" y="940.3467">NoteItem</text><line style="stroke:#181818;stroke-width:0.5;" x1="2918" x2="3017" y1="951.5" y2="951.5"/><line style="stroke:#181818;stroke-width:0.5;" x1="2918" x2="3017" y1="959.5" y2="959.5"/></g><!--class GoogleSignInButton--><g id="elem_GoogleSignInButton"><rect codeLine="133" fill="#F1F1F1" height="80.5938" id="GoogleSignInButton" rx="2.5" ry="2.5" style="stroke:#181818;stroke-width:0.5;" width="349" x="4018" y="665"/><ellipse cx="4115.75" cy="681" fill="#ADD1B2" rx="11" ry="11" style="stroke:#181818;stroke-width:1.0;"/><path d="M4118.0938,676.6719 C4117.1563,676.2344 4116.5625,676.0938 4115.6875,676.0938 C4113.0625,676.0938 4111.0625,678.1719 4111.0625,680.8906 L4111.0625,682.0156 C4111.0625,684.5938 4113.1719,686.4844 4116.0625,686.4844 C4117.2813,686.4844 4118.4375,686.1875 4119.1875,685.6406 C4119.7656,685.2344 4120.0938,684.7813 4120.0938,684.3906 C4120.0938,683.9375 4119.7031,683.5469 4119.2344,683.5469 C4119.0156,683.5469 4118.8125,683.625 4118.625,683.8125 C4118.1719,684.2969 4118.1719,684.2969 4117.9844,684.3906 C4117.5625,684.6563 4116.875,684.7813 4116.1094,684.7813 C4114.0625,684.7813 4112.7656,683.6875 4112.7656,681.9844 L4112.7656,680.8906 C4112.7656,679.1094 4114.0156,677.7969 4115.75,677.7969 C4116.3281,677.7969 4116.9375,677.9531 4117.4063,678.2031 C4117.8906,678.4844 4118.0625,678.7031 4118.1563,679.1094 C4118.2188,679.5156 4118.25,679.6406 4118.3906,679.7656 C4118.5313,679.9063 4118.7656,680.0156 4118.9844,680.0156 C4119.25,680.0156 4119.5156,679.875 4119.6875,679.6563 C4119.7969,679.5 4119.8281,679.3125 4119.8281,678.8906 L4119.8281,677.4688 C4119.8281,677.0313 4119.8125,676.9063 4119.7188,676.75 C4119.5625,676.4844 4119.2813,676.3438 4118.9844,676.3438 C4118.6875,676.3438 4118.4844,676.4375 4118.2656,676.75 L4118.0938,676.6719 Z " fill="#000000"/><text fill="#000000" font-family="sans-serif" font-size="14" lengthAdjust="spacing" textLength="145" x="4136.25" y="685.8467">GoogleSignInButton</text><line style="stroke:#181818;stroke-width:0.5;" x1="4019" x2="4366" y1="697" y2="697"/><text fill="#000000" font-family="sans-serif" font-size="14" lengthAdjust="spacing" textLength="95" x="4024" y="713.9951">signInClicked</text><line style="stroke:#181818;stroke-width:0.5;" x1="4019" x2="4366" y1="721.2969" y2="721.2969"/><ellipse cx="4029" cy="734.9453" fill="#84BE84" rx="3" ry="3" style="stroke:#038048;stroke-width:1.0;"/><text fill="#000000" font-family="sans-serif" font-size="14" lengthAdjust="spacing" textLength="323" x="4038" y="738.292">GoogleSignInButton(signInClicked: () -&gt; Unit)</text></g><!--class DetailScreen--><g id="elem_DetailScreen"><rect codeLine="77" fill="#F1F1F1" height="113.1875" id="DetailScreen" rx="2.5" ry="2.5" style="stroke:#181818;stroke-width:0.5;" width="653" x="2186" y="649"/><ellipse cx="2461.75" cy="665" fill="#ADD1B2" rx="11" ry="11" style="stroke:#181818;stroke-width:1.0;"/><path d="M2464.0938,660.6719 C2463.1563,660.2344 2462.5625,660.0938 2461.6875,660.0938 C2459.0625,660.0938 2457.0625,662.1719 2457.0625,664.8906 L2457.0625,666.0156 C2457.0625,668.5938 2459.1719,670.4844 2462.0625,670.4844 C2463.2813,670.4844 2464.4375,670.1875 2465.1875,669.6406 C2465.7656,669.2344 2466.0938,668.7813 2466.0938,668.3906 C2466.0938,667.9375 2465.7031,667.5469 2465.2344,667.5469 C2465.0156,667.5469 2464.8125,667.625 2464.625,667.8125 C2464.1719,668.2969 2464.1719,668.2969 2463.9844,668.3906 C2463.5625,668.6563 2462.875,668.7813 2462.1094,668.7813 C2460.0625,668.7813 2458.7656,667.6875 2458.7656,665.9844 L2458.7656,664.8906 C2458.7656,663.1094 2460.0156,661.7969 2461.75,661.7969 C2462.3281,661.7969 2462.9375,661.9531 2463.4063,662.2031 C2463.8906,662.4844 2464.0625,662.7031 2464.1563,663.1094 C2464.2188,663.5156 2464.25,663.6406 2464.3906,663.7656 C2464.5313,663.9063 2464.7656,664.0156 2464.9844,664.0156 C2465.25,664.0156 2465.5156,663.875 2465.6875,663.6563 C2465.7969,663.5 2465.8281,663.3125 2465.8281,662.8906 L2465.8281,661.4688 C2465.8281,661.0313 2465.8125,660.9063 2465.7188,660.75 C2465.5625,660.4844 2465.2813,660.3438 2464.9844,660.3438 C2464.6875,660.3438 2464.4844,660.4375 2464.2656,660.75 L2464.0938,660.6719 Z " fill="#000000"/><text fill="#000000" font-family="sans-serif" font-size="14" lengthAdjust="spacing" textLength="93" x="2482.25" y="669.8467">DetailScreen</text><line style="stroke:#181818;stroke-width:0.5;" x1="2187" x2="2838" y1="681" y2="681"/><text fill="#000000" font-family="sans-serif" font-size="14" lengthAdjust="spacing" textLength="118" x="2192" y="697.9951">detailViewModel</text><text fill="#000000" font-family="sans-serif" font-size="14" lengthAdjust="spacing" textLength="47" x="2192" y="714.292">noteId</text><text fill="#000000" font-family="sans-serif" font-size="14" lengthAdjust="spacing" textLength="81" x="2192" y="730.5889">onNavigate</text><line style="stroke:#181818;stroke-width:0.5;" x1="2187" x2="2838" y1="737.8906" y2="737.8906"/><ellipse cx="2197" cy="751.5391" fill="#84BE84" rx="3" ry="3" style="stroke:#038048;stroke-width:1.0;"/><text fill="#000000" font-family="sans-serif" font-size="14" lengthAdjust="spacing" textLength="627" x="2206" y="754.8857">DetailScreen(detailViewModel: DetailViewModel?, noteId: String, onNavigate: () -&gt; Unit)</text></g><!--class ColorItem--><g id="elem_ColorItem"><rect codeLine="182" fill="#F1F1F1" height="96.8906" id="ColorItem" rx="2.5" ry="2.5" style="stroke:#181818;stroke-width:0.5;" width="325" x="1847" y="895"/><ellipse cx="1969.25" cy="911" fill="#ADD1B2" rx="11" ry="11" style="stroke:#181818;stroke-width:1.0;"/><path d="M1971.5938,906.6719 C1970.6563,906.2344 1970.0625,906.0938 1969.1875,906.0938 C1966.5625,906.0938 1964.5625,908.1719 1964.5625,910.8906 L1964.5625,912.0156 C1964.5625,914.5938 1966.6719,916.4844 1969.5625,916.4844 C1970.7813,916.4844 1971.9375,916.1875 1972.6875,915.6406 C1973.2656,915.2344 1973.5938,914.7813 1973.5938,914.3906 C1973.5938,913.9375 1973.2031,913.5469 1972.7344,913.5469 C1972.5156,913.5469 1972.3125,913.625 1972.125,913.8125 C1971.6719,914.2969 1971.6719,914.2969 1971.4844,914.3906 C1971.0625,914.6563 1970.375,914.7813 1969.6094,914.7813 C1967.5625,914.7813 1966.2656,913.6875 1966.2656,911.9844 L1966.2656,910.8906 C1966.2656,909.1094 1967.5156,907.7969 1969.25,907.7969 C1969.8281,907.7969 1970.4375,907.9531 1970.9063,908.2031 C1971.3906,908.4844 1971.5625,908.7031 1971.6563,909.1094 C1971.7188,909.5156 1971.75,909.6406 1971.8906,909.7656 C1972.0313,909.9063 1972.2656,910.0156 1972.4844,910.0156 C1972.75,910.0156 1973.0156,909.875 1973.1875,909.6563 C1973.2969,909.5 1973.3281,909.3125 1973.3281,908.8906 L1973.3281,907.4688 C1973.3281,907.0313 1973.3125,906.9063 1973.2188,906.75 C1973.0625,906.4844 1972.7813,906.3438 1972.4844,906.3438 C1972.1875,906.3438 1971.9844,906.4375 1971.7656,906.75 L1971.5938,906.6719 Z " fill="#000000"/><text fill="#000000" font-family="sans-serif" font-size="14" lengthAdjust="spacing" textLength="72" x="1989.75" y="915.8467">ColorItem</text><line style="stroke:#181818;stroke-width:0.5;" x1="1848" x2="2171" y1="927" y2="927"/><text fill="#000000" font-family="sans-serif" font-size="14" lengthAdjust="spacing" textLength="36" x="1853" y="943.9951">color</text><text fill="#000000" font-family="sans-serif" font-size="14" lengthAdjust="spacing" textLength="53" x="1853" y="960.292">onClick</text><line style="stroke:#181818;stroke-width:0.5;" x1="1848" x2="2171" y1="967.5938" y2="967.5938"/><ellipse cx="1858" cy="981.2422" fill="#84BE84" rx="3" ry="3" style="stroke:#038048;stroke-width:1.0;"/><text fill="#000000" font-family="sans-serif" font-size="14" lengthAdjust="spacing" textLength="299" x="1867" y="984.5889">ColorItem(color: Color, onClick: () -&gt; Unit)</text></g><!--class LoginRoutes--><g id="elem_LoginRoutes"><rect codeLine="23" fill="#F1F1F1" height="80.5938" id="LoginRoutes" rx="2.5" ry="2.5" style="stroke:#181818;stroke-width:0.5;" width="121" x="4326" y="1469"/><ellipse cx="4341" cy="1485" fill="#EB937F" rx="11" ry="11" style="stroke:#181818;stroke-width:1.0;"/><path d="M4339.7969,1485.875 L4341.25,1485.875 L4341.25,1485.9844 C4341.25,1486.3906 4341.2813,1486.5469 4341.3594,1486.7031 C4341.5156,1486.9531 4341.7969,1487.1094 4342.0938,1487.1094 C4342.3438,1487.1094 4342.6094,1486.9688 4342.7656,1486.75 C4342.8906,1486.5938 4342.9219,1486.4375 4342.9219,1485.9844 L4342.9219,1484.0625 C4342.9219,1483.9063 4342.9219,1483.8594 4342.9063,1483.7031 C4342.8438,1483.2344 4342.5313,1482.9219 4342.0781,1482.9219 C4341.8281,1482.9219 4341.5625,1483.0625 4341.3906,1483.2813 C4341.2813,1483.4531 4341.25,1483.6094 4341.25,1484.0625 L4341.25,1484.1875 L4339.7969,1484.1875 L4339.7969,1481.7813 L4343.7813,1481.7813 L4343.7813,1482.6406 C4343.7813,1483.0469 4343.8125,1483.2188 4343.8906,1483.375 C4344.0625,1483.625 4344.3438,1483.7813 4344.625,1483.7813 C4344.8906,1483.7813 4345.1563,1483.6406 4345.3281,1483.4219 C4345.4375,1483.25 4345.4688,1483.1094 4345.4688,1482.6406 L4345.4688,1480.0938 L4337.8438,1480.0938 C4337.4063,1480.0938 4337.2813,1480.1094 4337.125,1480.2031 C4336.875,1480.3594 4336.7188,1480.6563 4336.7188,1480.9375 C4336.7188,1481.2188 4336.8594,1481.4688 4337.0781,1481.6406 C4337.2344,1481.75 4337.4219,1481.7813 4337.8438,1481.7813 L4338.0938,1481.7813 L4338.0938,1488.2969 L4337.8438,1488.2969 C4337.4375,1488.2969 4337.2813,1488.3125 4337.125,1488.4219 C4336.875,1488.5938 4336.7188,1488.8594 4336.7188,1489.1563 C4336.7188,1489.4219 4336.8594,1489.6719 4337.0781,1489.8281 C4337.2188,1489.9531 4337.4531,1490 4337.8438,1490 L4345.8438,1490 L4345.8438,1487.4219 C4345.8438,1486.9844 4345.8125,1486.8438 4345.7344,1486.6875 C4345.5625,1486.4375 4345.2813,1486.2813 4345,1486.2813 C4344.7344,1486.2813 4344.4688,1486.3906 4344.2969,1486.6406 C4344.1875,1486.7969 4344.1563,1486.9375 4344.1563,1487.4219 L4344.1563,1488.2969 L4339.7969,1488.2969 L4339.7969,1485.875 Z " fill="#000000"/><text fill="#000000" font-family="sans-serif" font-size="14" lengthAdjust="spacing" textLength="89" x="4355" y="1489.8467">LoginRoutes</text><line style="stroke:#181818;stroke-width:0.5;" x1="4327" x2="4446" y1="1501" y2="1501"/><text fill="#000000" font-family="sans-serif" font-size="14" lengthAdjust="spacing" textLength="49" x="4332" y="1517.9951">Signup</text><text fill="#000000" font-family="sans-serif" font-size="14" lengthAdjust="spacing" textLength="44" x="4332" y="1534.292">SignIn</text><line style="stroke:#181818;stroke-width:0.5;" x1="4327" x2="4446" y1="1541.5938" y2="1541.5938"/></g><!--class HomeRoutes--><g id="elem_HomeRoutes"><rect codeLine="28" fill="#F1F1F1" height="80.5938" id="HomeRoutes" rx="2.5" ry="2.5" style="stroke:#181818;stroke-width:0.5;" width="124" x="3128.5" y="903"/><ellipse cx="3143.5" cy="919" fill="#EB937F" rx="11" ry="11" style="stroke:#181818;stroke-width:1.0;"/><path d="M3142.2969,919.875 L3143.75,919.875 L3143.75,919.9844 C3143.75,920.3906 3143.7813,920.5469 3143.8594,920.7031 C3144.0156,920.9531 3144.2969,921.1094 3144.5938,921.1094 C3144.8438,921.1094 3145.1094,920.9688 3145.2656,920.75 C3145.3906,920.5938 3145.4219,920.4375 3145.4219,919.9844 L3145.4219,918.0625 C3145.4219,917.9063 3145.4219,917.8594 3145.4063,917.7031 C3145.3438,917.2344 3145.0313,916.9219 3144.5781,916.9219 C3144.3281,916.9219 3144.0625,917.0625 3143.8906,917.2813 C3143.7813,917.4531 3143.75,917.6094 3143.75,918.0625 L3143.75,918.1875 L3142.2969,918.1875 L3142.2969,915.7813 L3146.2813,915.7813 L3146.2813,916.6406 C3146.2813,917.0469 3146.3125,917.2188 3146.3906,917.375 C3146.5625,917.625 3146.8438,917.7813 3147.125,917.7813 C3147.3906,917.7813 3147.6563,917.6406 3147.8281,917.4219 C3147.9375,917.25 3147.9688,917.1094 3147.9688,916.6406 L3147.9688,914.0938 L3140.3438,914.0938 C3139.9063,914.0938 3139.7813,914.1094 3139.625,914.2031 C3139.375,914.3594 3139.2188,914.6563 3139.2188,914.9375 C3139.2188,915.2188 3139.3594,915.4688 3139.5781,915.6406 C3139.7344,915.75 3139.9219,915.7813 3140.3438,915.7813 L3140.5938,915.7813 L3140.5938,922.2969 L3140.3438,922.2969 C3139.9375,922.2969 3139.7813,922.3125 3139.625,922.4219 C3139.375,922.5938 3139.2188,922.8594 3139.2188,923.1563 C3139.2188,923.4219 3139.3594,923.6719 3139.5781,923.8281 C3139.7188,923.9531 3139.9531,924 3140.3438,924 L3148.3438,924 L3148.3438,921.4219 C3148.3438,920.9844 3148.3125,920.8438 3148.2344,920.6875 C3148.0625,920.4375 3147.7813,920.2813 3147.5,920.2813 C3147.2344,920.2813 3146.9688,920.3906 3146.7969,920.6406 C3146.6875,920.7969 3146.6563,920.9375 3146.6563,921.4219 L3146.6563,922.2969 L3142.2969,922.2969 L3142.2969,919.875 Z " fill="#000000"/><text fill="#000000" font-family="sans-serif" font-size="14" lengthAdjust="spacing" textLength="92" x="3157.5" y="923.8467">HomeRoutes</text><line style="stroke:#181818;stroke-width:0.5;" x1="3129.5" x2="3251.5" y1="935" y2="935"/><text fill="#000000" font-family="sans-serif" font-size="14" lengthAdjust="spacing" textLength="42" x="3134.5" y="951.9951">Home</text><text fill="#000000" font-family="sans-serif" font-size="14" lengthAdjust="spacing" textLength="43" x="3134.5" y="968.292">Detail</text><line style="stroke:#181818;stroke-width:0.5;" x1="3129.5" x2="3251.5" y1="975.5938" y2="975.5938"/></g><!--class Navigation--><g id="elem_Navigation"><rect codeLine="33" fill="#F1F1F1" height="162.0781" id="Navigation" rx="2.5" ry="2.5" style="stroke:#181818;stroke-width:0.5;" width="130" x="1049.5" y="164"/><ellipse cx="1074.4" cy="180" fill="#ADD1B2" rx="11" ry="11" style="stroke:#181818;stroke-width:1.0;"/><path d="M1076.7438,175.6719 C1075.8063,175.2344 1075.2125,175.0938 1074.3375,175.0938 C1071.7125,175.0938 1069.7125,177.1719 1069.7125,179.8906 L1069.7125,181.0156 C1069.7125,183.5938 1071.8219,185.4844 1074.7125,185.4844 C1075.9313,185.4844 1077.0875,185.1875 1077.8375,184.6406 C1078.4156,184.2344 1078.7438,183.7813 1078.7438,183.3906 C1078.7438,182.9375 1078.3531,182.5469 1077.8844,182.5469 C1077.6656,182.5469 1077.4625,182.625 1077.275,182.8125 C1076.8219,183.2969 1076.8219,183.2969 1076.6344,183.3906 C1076.2125,183.6563 1075.525,183.7813 1074.7594,183.7813 C1072.7125,183.7813 1071.4156,182.6875 1071.4156,180.9844 L1071.4156,179.8906 C1071.4156,178.1094 1072.6656,176.7969 1074.4,176.7969 C1074.9781,176.7969 1075.5875,176.9531 1076.0563,177.2031 C1076.5406,177.4844 1076.7125,177.7031 1076.8063,178.1094 C1076.8688,178.5156 1076.9,178.6406 1077.0406,178.7656 C1077.1813,178.9063 1077.4156,179.0156 1077.6344,179.0156 C1077.9,179.0156 1078.1656,178.875 1078.3375,178.6563 C1078.4469,178.5 1078.4781,178.3125 1078.4781,177.8906 L1078.4781,176.4688 C1078.4781,176.0313 1078.4625,175.9063 1078.3688,175.75 C1078.2125,175.4844 1077.9313,175.3438 1077.6344,175.3438 C1077.3375,175.3438 1077.1344,175.4375 1076.9156,175.75 L1076.7438,175.6719 Z " fill="#000000"/><text fill="#000000" font-family="sans-serif" font-size="14" lengthAdjust="spacing" textLength="76" x="1090.6" y="184.8467">Navigation</text><line style="stroke:#181818;stroke-width:0.5;" x1="1050.5" x2="1178.5" y1="196" y2="196"/><text fill="#000000" font-family="sans-serif" font-size="14" lengthAdjust="spacing" textLength="98" x="1055.5" y="212.9951">navController</text><text fill="#000000" font-family="sans-serif" font-size="14" lengthAdjust="spacing" textLength="112" x="1055.5" y="229.292">loginViewModel</text><text fill="#000000" font-family="sans-serif" font-size="14" lengthAdjust="spacing" textLength="118" x="1055.5" y="245.5889">detailViewModel</text><text fill="#000000" font-family="sans-serif" font-size="14" lengthAdjust="spacing" textLength="118" x="1055.5" y="261.8857">homeViewModel</text><text fill="#000000" font-family="sans-serif" font-size="14" lengthAdjust="spacing" textLength="77" x="1055.5" y="278.1826">isLoggedIn</text><line style="stroke:#181818;stroke-width:0.5;" x1="1050.5" x2="1178.5" y1="285.4844" y2="285.4844"/><text fill="#000000" font-family="sans-serif" font-size="14" lengthAdjust="spacing" textLength="86" x="1055.5" y="302.4795">authGraph()</text><text fill="#000000" font-family="sans-serif" font-size="14" lengthAdjust="spacing" textLength="95" x="1055.5" y="318.7764">homeGraph()</text></g><!--class AuthGraph--><g id="elem_AuthGraph"><rect codeLine="44" fill="#F1F1F1" height="113.1875" id="AuthGraph" rx="2.5" ry="2.5" style="stroke:#181818;stroke-width:0.5;" width="525" x="7" y="649"/><ellipse cx="226.25" cy="665" fill="#ADD1B2" rx="11" ry="11" style="stroke:#181818;stroke-width:1.0;"/><path d="M228.5938,660.6719 C227.6563,660.2344 227.0625,660.0938 226.1875,660.0938 C223.5625,660.0938 221.5625,662.1719 221.5625,664.8906 L221.5625,666.0156 C221.5625,668.5938 223.6719,670.4844 226.5625,670.4844 C227.7813,670.4844 228.9375,670.1875 229.6875,669.6406 C230.2656,669.2344 230.5938,668.7813 230.5938,668.3906 C230.5938,667.9375 230.2031,667.5469 229.7344,667.5469 C229.5156,667.5469 229.3125,667.625 229.125,667.8125 C228.6719,668.2969 228.6719,668.2969 228.4844,668.3906 C228.0625,668.6563 227.375,668.7813 226.6094,668.7813 C224.5625,668.7813 223.2656,667.6875 223.2656,665.9844 L223.2656,664.8906 C223.2656,663.1094 224.5156,661.7969 226.25,661.7969 C226.8281,661.7969 227.4375,661.9531 227.9063,662.2031 C228.3906,662.4844 228.5625,662.7031 228.6563,663.1094 C228.7188,663.5156 228.75,663.6406 228.8906,663.7656 C229.0313,663.9063 229.2656,664.0156 229.4844,664.0156 C229.75,664.0156 230.0156,663.875 230.1875,663.6563 C230.2969,663.5 230.3281,663.3125 230.3281,662.8906 L230.3281,661.4688 C230.3281,661.0313 230.3125,660.9063 230.2188,660.75 C230.0625,660.4844 229.7813,660.3438 229.4844,660.3438 C229.1875,660.3438 228.9844,660.4375 228.7656,660.75 L228.5938,660.6719 Z " fill="#000000"/><text fill="#000000" font-family="sans-serif" font-size="14" lengthAdjust="spacing" textLength="78" x="246.75" y="669.8467">AuthGraph</text><line style="stroke:#181818;stroke-width:0.5;" x1="8" x2="531" y1="681" y2="681"/><text fill="#000000" font-family="sans-serif" font-size="14" lengthAdjust="spacing" textLength="98" x="13" y="697.9951">navController</text><text fill="#000000" font-family="sans-serif" font-size="14" lengthAdjust="spacing" textLength="112" x="13" y="714.292">loginViewModel</text><line style="stroke:#181818;stroke-width:0.5;" x1="8" x2="531" y1="721.5938" y2="721.5938"/><text fill="#000000" font-family="sans-serif" font-size="14" lengthAdjust="spacing" textLength="358" x="13" y="738.5889">LoginScreen(onNavToHomePage, loginViewModel)</text><text fill="#000000" font-family="sans-serif" font-size="14" lengthAdjust="spacing" textLength="513" x="13" y="754.8857">SignUpScreen(onNavToHomePage, onNavToLoginPage, loginViewModel)</text></g><!--class HomeGraph--><g id="elem_HomeGraph"><rect codeLine="52" fill="#F1F1F1" height="129.4844" id="HomeGraph" rx="2.5" ry="2.5" style="stroke:#181818;stroke-width:0.5;" width="532" x="567.5" y="641"/><ellipse cx="786.25" cy="657" fill="#ADD1B2" rx="11" ry="11" style="stroke:#181818;stroke-width:1.0;"/><path d="M788.5938,652.6719 C787.6563,652.2344 787.0625,652.0938 786.1875,652.0938 C783.5625,652.0938 781.5625,654.1719 781.5625,656.8906 L781.5625,658.0156 C781.5625,660.5938 783.6719,662.4844 786.5625,662.4844 C787.7813,662.4844 788.9375,662.1875 789.6875,661.6406 C790.2656,661.2344 790.5938,660.7813 790.5938,660.3906 C790.5938,659.9375 790.2031,659.5469 789.7344,659.5469 C789.5156,659.5469 789.3125,659.625 789.125,659.8125 C788.6719,660.2969 788.6719,660.2969 788.4844,660.3906 C788.0625,660.6563 787.375,660.7813 786.6094,660.7813 C784.5625,660.7813 783.2656,659.6875 783.2656,657.9844 L783.2656,656.8906 C783.2656,655.1094 784.5156,653.7969 786.25,653.7969 C786.8281,653.7969 787.4375,653.9531 787.9063,654.2031 C788.3906,654.4844 788.5625,654.7031 788.6563,655.1094 C788.7188,655.5156 788.75,655.6406 788.8906,655.7656 C789.0313,655.9063 789.2656,656.0156 789.4844,656.0156 C789.75,656.0156 790.0156,655.875 790.1875,655.6563 C790.2969,655.5 790.3281,655.3125 790.3281,654.8906 L790.3281,653.4688 C790.3281,653.0313 790.3125,652.9063 790.2188,652.75 C790.0625,652.4844 789.7813,652.3438 789.4844,652.3438 C789.1875,652.3438 788.9844,652.4375 788.7656,652.75 L788.5938,652.6719 Z " fill="#000000"/><text fill="#000000" font-family="sans-serif" font-size="14" lengthAdjust="spacing" textLength="86" x="806.75" y="661.8467">HomeGraph</text><line style="stroke:#181818;stroke-width:0.5;" x1="568.5" x2="1098.5" y1="673" y2="673"/><text fill="#000000" font-family="sans-serif" font-size="14" lengthAdjust="spacing" textLength="98" x="573.5" y="689.9951">navController</text><text fill="#000000" font-family="sans-serif" font-size="14" lengthAdjust="spacing" textLength="118" x="573.5" y="706.292">detailViewModel</text><text fill="#000000" font-family="sans-serif" font-size="14" lengthAdjust="spacing" textLength="118" x="573.5" y="722.5889">homeViewModel</text><line style="stroke:#181818;stroke-width:0.5;" x1="568.5" x2="1098.5" y1="729.8906" y2="729.8906"/><text fill="#000000" font-family="sans-serif" font-size="14" lengthAdjust="spacing" textLength="520" x="573.5" y="746.8857">Home(homeViewModel, onNoteClick, navToDetailPage, navToLoginPage)</text><text fill="#000000" font-family="sans-serif" font-size="14" lengthAdjust="spacing" textLength="365" x="573.5" y="763.1826">DetailScreen(detailViewModel, noteId, onNavigate)</text></g><!--class NestedRoutes--><g id="elem_NestedRoutes"><rect fill="#F1F1F1" height="48" id="NestedRoutes" rx="2.5" ry="2.5" style="stroke:#181818;stroke-width:0.5;" width="133" x="1048" y="459.5"/><ellipse cx="1063" cy="475.5" fill="#ADD1B2" rx="11" ry="11" style="stroke:#181818;stroke-width:1.0;"/><path d="M1065.3438,471.1719 C1064.4063,470.7344 1063.8125,470.5938 1062.9375,470.5938 C1060.3125,470.5938 1058.3125,472.6719 1058.3125,475.3906 L1058.3125,476.5156 C1058.3125,479.0938 1060.4219,480.9844 1063.3125,480.9844 C1064.5313,480.9844 1065.6875,480.6875 1066.4375,480.1406 C1067.0156,479.7344 1067.3438,479.2813 1067.3438,478.8906 C1067.3438,478.4375 1066.9531,478.0469 1066.4844,478.0469 C1066.2656,478.0469 1066.0625,478.125 1065.875,478.3125 C1065.4219,478.7969 1065.4219,478.7969 1065.2344,478.8906 C1064.8125,479.1563 1064.125,479.2813 1063.3594,479.2813 C1061.3125,479.2813 1060.0156,478.1875 1060.0156,476.4844 L1060.0156,475.3906 C1060.0156,473.6094 1061.2656,472.2969 1063,472.2969 C1063.5781,472.2969 1064.1875,472.4531 1064.6563,472.7031 C1065.1406,472.9844 1065.3125,473.2031 1065.4063,473.6094 C1065.4688,474.0156 1065.5,474.1406 1065.6406,474.2656 C1065.7813,474.4063 1066.0156,474.5156 1066.2344,474.5156 C1066.5,474.5156 1066.7656,474.375 1066.9375,474.1563 C1067.0469,474 1067.0781,473.8125 1067.0781,473.3906 L1067.0781,471.9688 C1067.0781,471.5313 1067.0625,471.4063 1066.9688,471.25 C1066.8125,470.9844 1066.5313,470.8438 1066.2344,470.8438 C1065.9375,470.8438 1065.7344,470.9375 1065.5156,471.25 L1065.3438,471.1719 Z " fill="#000000"/><text fill="#000000" font-family="sans-serif" font-size="14" lengthAdjust="spacing" textLength="101" x="1077" y="480.3467">NestedRoutes</text><line style="stroke:#181818;stroke-width:0.5;" x1="1049" x2="1180" y1="491.5" y2="491.5"/><line style="stroke:#181818;stroke-width:0.5;" x1="1049" x2="1180" y1="499.5" y2="499.5"/></g><!--class MainActivity--><g id="elem_MainActivity"><rect codeLine="68" fill="#F1F1F1" height="96.8906" id="MainActivity" rx="2.5" ry="2.5" style="stroke:#181818;stroke-width:0.5;" width="310" x="959.5" y="7"/><ellipse cx="1065.75" cy="23" fill="#ADD1B2" rx="11" ry="11" style="stroke:#181818;stroke-width:1.0;"/><path d="M1068.0938,18.6719 C1067.1563,18.2344 1066.5625,18.0938 1065.6875,18.0938 C1063.0625,18.0938 1061.0625,20.1719 1061.0625,22.8906 L1061.0625,24.0156 C1061.0625,26.5938 1063.1719,28.4844 1066.0625,28.4844 C1067.2813,28.4844 1068.4375,28.1875 1069.1875,27.6406 C1069.7656,27.2344 1070.0938,26.7813 1070.0938,26.3906 C1070.0938,25.9375 1069.7031,25.5469 1069.2344,25.5469 C1069.0156,25.5469 1068.8125,25.625 1068.625,25.8125 C1068.1719,26.2969 1068.1719,26.2969 1067.9844,26.3906 C1067.5625,26.6563 1066.875,26.7813 1066.1094,26.7813 C1064.0625,26.7813 1062.7656,25.6875 1062.7656,23.9844 L1062.7656,22.8906 C1062.7656,21.1094 1064.0156,19.7969 1065.75,19.7969 C1066.3281,19.7969 1066.9375,19.9531 1067.4063,20.2031 C1067.8906,20.4844 1068.0625,20.7031 1068.1563,21.1094 C1068.2188,21.5156 1068.25,21.6406 1068.3906,21.7656 C1068.5313,21.9063 1068.7656,22.0156 1068.9844,22.0156 C1069.25,22.0156 1069.5156,21.875 1069.6875,21.6563 C1069.7969,21.5 1069.8281,21.3125 1069.8281,20.8906 L1069.8281,19.4688 C1069.8281,19.0313 1069.8125,18.9063 1069.7188,18.75 C1069.5625,18.4844 1069.2813,18.3438 1068.9844,18.3438 C1068.6875,18.3438 1068.4844,18.4375 1068.2656,18.75 L1068.0938,18.6719 Z " fill="#000000"/><text fill="#000000" font-family="sans-serif" font-size="14" lengthAdjust="spacing" textLength="89" x="1086.25" y="27.8467">MainActivity</text><line style="stroke:#181818;stroke-width:0.5;" x1="960.5" x2="1268.5" y1="39" y2="39"/><text fill="#000000" font-family="sans-serif" font-size="14" lengthAdjust="spacing" textLength="124" x="965.5" y="55.9951">firebaseAnalytics</text><text fill="#000000" font-family="sans-serif" font-size="14" lengthAdjust="spacing" textLength="75" x="965.5" y="72.292">navigation</text><line style="stroke:#181818;stroke-width:0.5;" x1="960.5" x2="1268.5" y1="79.5938" y2="79.5938"/><ellipse cx="970.5" cy="93.2422" fill="#84BE84" rx="3" ry="3" style="stroke:#038048;stroke-width:1.0;"/><text fill="#000000" font-family="sans-serif" font-size="14" lengthAdjust="spacing" textLength="284" x="979.5" y="96.5889">onCreate(savedInstanceState: Bundle?)</text></g><!--class DetailViewModel--><g id="elem_DetailViewModel"><rect codeLine="85" fill="#F1F1F1" height="227.2656" id="DetailViewModel" rx="2.5" ry="2.5" style="stroke:#181818;stroke-width:0.5;" width="250" x="2387.5" y="830"/><ellipse cx="2448.25" cy="846" fill="#ADD1B2" rx="11" ry="11" style="stroke:#181818;stroke-width:1.0;"/><path d="M2450.5938,841.6719 C2449.6563,841.2344 2449.0625,841.0938 2448.1875,841.0938 C2445.5625,841.0938 2443.5625,843.1719 2443.5625,845.8906 L2443.5625,847.0156 C2443.5625,849.5938 2445.6719,851.4844 2448.5625,851.4844 C2449.7813,851.4844 2450.9375,851.1875 2451.6875,850.6406 C2452.2656,850.2344 2452.5938,849.7813 2452.5938,849.3906 C2452.5938,848.9375 2452.2031,848.5469 2451.7344,848.5469 C2451.5156,848.5469 2451.3125,848.625 2451.125,848.8125 C2450.6719,849.2969 2450.6719,849.2969 2450.4844,849.3906 C2450.0625,849.6563 2449.375,849.7813 2448.6094,849.7813 C2446.5625,849.7813 2445.2656,848.6875 2445.2656,846.9844 L2445.2656,845.8906 C2445.2656,844.1094 2446.5156,842.7969 2448.25,842.7969 C2448.8281,842.7969 2449.4375,842.9531 2449.9063,843.2031 C2450.3906,843.4844 2450.5625,843.7031 2450.6563,844.1094 C2450.7188,844.5156 2450.75,844.6406 2450.8906,844.7656 C2451.0313,844.9063 2451.2656,845.0156 2451.4844,845.0156 C2451.75,845.0156 2452.0156,844.875 2452.1875,844.6563 C2452.2969,844.5 2452.3281,844.3125 2452.3281,843.8906 L2452.3281,842.4688 C2452.3281,842.0313 2452.3125,841.9063 2452.2188,841.75 C2452.0625,841.4844 2451.7813,841.3438 2451.4844,841.3438 C2451.1875,841.3438 2450.9844,841.4375 2450.7656,841.75 L2450.5938,841.6719 Z " fill="#000000"/><text fill="#000000" font-family="sans-serif" font-size="14" lengthAdjust="spacing" textLength="120" x="2468.75" y="850.8467">DetailViewModel</text><line style="stroke:#181818;stroke-width:0.5;" x1="2388.5" x2="2636.5" y1="862" y2="862"/><text fill="#000000" font-family="sans-serif" font-size="14" lengthAdjust="spacing" textLength="75" x="2393.5" y="878.9951">repository</text><text fill="#000000" font-family="sans-serif" font-size="14" lengthAdjust="spacing" textLength="94" x="2393.5" y="895.292">detailUiState</text><line style="stroke:#181818;stroke-width:0.5;" x1="2388.5" x2="2636.5" y1="902.5938" y2="902.5938"/><ellipse cx="2398.5" cy="916.2422" fill="#84BE84" rx="3" ry="3" style="stroke:#038048;stroke-width:1.0;"/><text fill="#000000" font-family="sans-serif" font-size="14" lengthAdjust="spacing" textLength="224" x="2407.5" y="919.5889">onColorChange(colorIndex: Int)</text><ellipse cx="2398.5" cy="932.5391" fill="#84BE84" rx="3" ry="3" style="stroke:#038048;stroke-width:1.0;"/><text fill="#000000" font-family="sans-serif" font-size="14" lengthAdjust="spacing" textLength="199" x="2407.5" y="935.8857">onTitleChange(title: String)</text><ellipse cx="2398.5" cy="948.8359" fill="#84BE84" rx="3" ry="3" style="stroke:#038048;stroke-width:1.0;"/><text fill="#000000" font-family="sans-serif" font-size="14" lengthAdjust="spacing" textLength="204" x="2407.5" y="952.1826">onNoteChange(note: String)</text><ellipse cx="2398.5" cy="965.1328" fill="#84BE84" rx="3" ry="3" style="stroke:#038048;stroke-width:1.0;"/><text fill="#000000" font-family="sans-serif" font-size="14" lengthAdjust="spacing" textLength="71" x="2407.5" y="968.4795">addNote()</text><ellipse cx="2398.5" cy="981.4297" fill="#84BE84" rx="3" ry="3" style="stroke:#038048;stroke-width:1.0;"/><text fill="#000000" font-family="sans-serif" font-size="14" lengthAdjust="spacing" textLength="188" x="2407.5" y="984.7764">setEditFields(note: Notes)</text><ellipse cx="2398.5" cy="997.7266" fill="#84BE84" rx="3" ry="3" style="stroke:#038048;stroke-width:1.0;"/><text fill="#000000" font-family="sans-serif" font-size="14" lengthAdjust="spacing" textLength="170" x="2407.5" y="1001.0732">getNote(noteId: String)</text><ellipse cx="2398.5" cy="1014.0234" fill="#84BE84" rx="3" ry="3" style="stroke:#038048;stroke-width:1.0;"/><text fill="#000000" font-family="sans-serif" font-size="14" lengthAdjust="spacing" textLength="196" x="2407.5" y="1017.3701">updateNote(noteId: String)</text><ellipse cx="2398.5" cy="1030.3203" fill="#84BE84" rx="3" ry="3" style="stroke:#038048;stroke-width:1.0;"/><text fill="#000000" font-family="sans-serif" font-size="14" lengthAdjust="spacing" textLength="175" x="2407.5" y="1033.667">resetNoteAddedStatus()</text><ellipse cx="2398.5" cy="1046.6172" fill="#84BE84" rx="3" ry="3" style="stroke:#038048;stroke-width:1.0;"/><text fill="#000000" font-family="sans-serif" font-size="14" lengthAdjust="spacing" textLength="88" x="2407.5" y="1049.9639">resetState()</text></g><!--class HomeViewModel--><g id="elem_HomeViewModel"><rect codeLine="114" fill="#F1F1F1" height="178.375" id="HomeViewModel" rx="2.5" ry="2.5" style="stroke:#181818;stroke-width:0.5;" width="230" x="3287.5" y="854.5"/><ellipse cx="3338.75" cy="870.5" fill="#ADD1B2" rx="11" ry="11" style="stroke:#181818;stroke-width:1.0;"/><path d="M3341.0938,866.1719 C3340.1563,865.7344 3339.5625,865.5938 3338.6875,865.5938 C3336.0625,865.5938 3334.0625,867.6719 3334.0625,870.3906 L3334.0625,871.5156 C3334.0625,874.0938 3336.1719,875.9844 3339.0625,875.9844 C3340.2813,875.9844 3341.4375,875.6875 3342.1875,875.1406 C3342.7656,874.7344 3343.0938,874.2813 3343.0938,873.8906 C3343.0938,873.4375 3342.7031,873.0469 3342.2344,873.0469 C3342.0156,873.0469 3341.8125,873.125 3341.625,873.3125 C3341.1719,873.7969 3341.1719,873.7969 3340.9844,873.8906 C3340.5625,874.1563 3339.875,874.2813 3339.1094,874.2813 C3337.0625,874.2813 3335.7656,873.1875 3335.7656,871.4844 L3335.7656,870.3906 C3335.7656,868.6094 3337.0156,867.2969 3338.75,867.2969 C3339.3281,867.2969 3339.9375,867.4531 3340.4063,867.7031 C3340.8906,867.9844 3341.0625,868.2031 3341.1563,868.6094 C3341.2188,869.0156 3341.25,869.1406 3341.3906,869.2656 C3341.5313,869.4063 3341.7656,869.5156 3341.9844,869.5156 C3342.25,869.5156 3342.5156,869.375 3342.6875,869.1563 C3342.7969,869 3342.8281,868.8125 3342.8281,868.3906 L3342.8281,866.9688 C3342.8281,866.5313 3342.8125,866.4063 3342.7188,866.25 C3342.5625,865.9844 3342.2813,865.8438 3341.9844,865.8438 C3341.6875,865.8438 3341.4844,865.9375 3341.2656,866.25 L3341.0938,866.1719 Z " fill="#000000"/><text fill="#000000" font-family="sans-serif" font-size="14" lengthAdjust="spacing" textLength="119" x="3359.25" y="875.3467">HomeViewModel</text><line style="stroke:#181818;stroke-width:0.5;" x1="3288.5" x2="3516.5" y1="886.5" y2="886.5"/><text fill="#000000" font-family="sans-serif" font-size="14" lengthAdjust="spacing" textLength="75" x="3293.5" y="903.4951">repository</text><text fill="#000000" font-family="sans-serif" font-size="14" lengthAdjust="spacing" textLength="94" x="3293.5" y="919.792">homeUiState</text><text fill="#000000" font-family="sans-serif" font-size="14" lengthAdjust="spacing" textLength="30" x="3293.5" y="936.0889">user</text><text fill="#000000" font-family="sans-serif" font-size="14" lengthAdjust="spacing" textLength="55" x="3293.5" y="952.3857">hasUser</text><line style="stroke:#181818;stroke-width:0.5;" x1="3288.5" x2="3516.5" y1="959.6875" y2="959.6875"/><ellipse cx="3298.5" cy="973.3359" fill="#84BE84" rx="3" ry="3" style="stroke:#038048;stroke-width:1.0;"/><text fill="#000000" font-family="sans-serif" font-size="14" lengthAdjust="spacing" textLength="82" x="3307.5" y="976.6826">loadNotes()</text><ellipse cx="3298.5" cy="989.6328" fill="#84BE84" rx="3" ry="3" style="stroke:#038048;stroke-width:1.0;"/><text fill="#000000" font-family="sans-serif" font-size="14" lengthAdjust="spacing" textLength="204" x="3307.5" y="992.9795">getUserNotes(userId: String)</text><ellipse cx="3298.5" cy="1005.9297" fill="#84BE84" rx="3" ry="3" style="stroke:#038048;stroke-width:1.0;"/><text fill="#000000" font-family="sans-serif" font-size="14" lengthAdjust="spacing" textLength="192" x="3307.5" y="1009.2764">deleteNote(noteId: String)</text><ellipse cx="3298.5" cy="1022.2266" fill="#84BE84" rx="3" ry="3" style="stroke:#038048;stroke-width:1.0;"/><text fill="#000000" font-family="sans-serif" font-size="14" lengthAdjust="spacing" textLength="65" x="3307.5" y="1025.5732">signOut()</text></g><!--class LoginViewModel--><g id="elem_LoginViewModel"><rect codeLine="148" fill="#F1F1F1" height="292.4531" id="LoginViewModel" rx="2.5" ry="2.5" style="stroke:#181818;stroke-width:0.5;" width="551" x="3905" y="1117"/><ellipse cx="4118.25" cy="1133" fill="#ADD1B2" rx="11" ry="11" style="stroke:#181818;stroke-width:1.0;"/><path d="M4120.5938,1128.6719 C4119.6563,1128.2344 4119.0625,1128.0938 4118.1875,1128.0938 C4115.5625,1128.0938 4113.5625,1130.1719 4113.5625,1132.8906 L4113.5625,1134.0156 C4113.5625,1136.5938 4115.6719,1138.4844 4118.5625,1138.4844 C4119.7813,1138.4844 4120.9375,1138.1875 4121.6875,1137.6406 C4122.2656,1137.2344 4122.5938,1136.7813 4122.5938,1136.3906 C4122.5938,1135.9375 4122.2031,1135.5469 4121.7344,1135.5469 C4121.5156,1135.5469 4121.3125,1135.625 4121.125,1135.8125 C4120.6719,1136.2969 4120.6719,1136.2969 4120.4844,1136.3906 C4120.0625,1136.6563 4119.375,1136.7813 4118.6094,1136.7813 C4116.5625,1136.7813 4115.2656,1135.6875 4115.2656,1133.9844 L4115.2656,1132.8906 C4115.2656,1131.1094 4116.5156,1129.7969 4118.25,1129.7969 C4118.8281,1129.7969 4119.4375,1129.9531 4119.9063,1130.2031 C4120.3906,1130.4844 4120.5625,1130.7031 4120.6563,1131.1094 C4120.7188,1131.5156 4120.75,1131.6406 4120.8906,1131.7656 C4121.0313,1131.9063 4121.2656,1132.0156 4121.4844,1132.0156 C4121.75,1132.0156 4122.0156,1131.875 4122.1875,1131.6563 C4122.2969,1131.5 4122.3281,1131.3125 4122.3281,1130.8906 L4122.3281,1129.4688 C4122.3281,1129.0313 4122.3125,1128.9063 4122.2188,1128.75 C4122.0625,1128.4844 4121.7813,1128.3438 4121.4844,1128.3438 C4121.1875,1128.3438 4120.9844,1128.4375 4120.7656,1128.75 L4120.5938,1128.6719 Z " fill="#000000"/><text fill="#000000" font-family="sans-serif" font-size="14" lengthAdjust="spacing" textLength="116" x="4138.75" y="1137.8467">LoginViewModel</text><line style="stroke:#181818;stroke-width:0.5;" x1="3906" x2="4455" y1="1149" y2="1149"/><text fill="#000000" font-family="sans-serif" font-size="14" lengthAdjust="spacing" textLength="75" x="3911" y="1165.9951">repository</text><text fill="#000000" font-family="sans-serif" font-size="14" lengthAdjust="spacing" textLength="84" x="3911" y="1182.292">currentUser</text><text fill="#000000" font-family="sans-serif" font-size="14" lengthAdjust="spacing" textLength="55" x="3911" y="1198.5889">hasUser</text><text fill="#000000" font-family="sans-serif" font-size="14" lengthAdjust="spacing" textLength="88" x="3911" y="1214.8857">loginUiState</text><text fill="#000000" font-family="sans-serif" font-size="14" lengthAdjust="spacing" textLength="174" x="3911" y="1231.1826">isPrivacyPolicyAccepted</text><line style="stroke:#181818;stroke-width:0.5;" x1="3906" x2="4455" y1="1238.4844" y2="1238.4844"/><ellipse cx="3916" cy="1252.1328" fill="#84BE84" rx="3" ry="3" style="stroke:#038048;stroke-width:1.0;"/><text fill="#000000" font-family="sans-serif" font-size="14" lengthAdjust="spacing" textLength="278" x="3925" y="1255.4795">onUserNameChange(userName: String)</text><ellipse cx="3916" cy="1268.4297" fill="#84BE84" rx="3" ry="3" style="stroke:#038048;stroke-width:1.0;"/><text fill="#000000" font-family="sans-serif" font-size="14" lengthAdjust="spacing" textLength="309" x="3925" y="1271.7764">onPasswordNameChange(password: String)</text><ellipse cx="3916" cy="1284.7266" fill="#84BE84" rx="3" ry="3" style="stroke:#038048;stroke-width:1.0;"/><text fill="#000000" font-family="sans-serif" font-size="14" lengthAdjust="spacing" textLength="327" x="3925" y="1288.0732">onUserNameChangeSignup(userName: String)</text><ellipse cx="3916" cy="1301.0234" fill="#84BE84" rx="3" ry="3" style="stroke:#038048;stroke-width:1.0;"/><text fill="#000000" font-family="sans-serif" font-size="14" lengthAdjust="spacing" textLength="317" x="3925" y="1304.3701">onPasswordChangeSignup(password: String)</text><ellipse cx="3916" cy="1317.3203" fill="#84BE84" rx="3" ry="3" style="stroke:#038048;stroke-width:1.0;"/><text fill="#000000" font-family="sans-serif" font-size="14" lengthAdjust="spacing" textLength="326" x="3925" y="1320.667">onConfirmPasswordChange(password: String)</text><ellipse cx="3916" cy="1333.6172" fill="#84BE84" rx="3" ry="3" style="stroke:#038048;stroke-width:1.0;"/><text fill="#000000" font-family="sans-serif" font-size="14" lengthAdjust="spacing" textLength="143" x="3925" y="1336.9639">validateLoginForm()</text><ellipse cx="3916" cy="1349.9141" fill="#84BE84" rx="3" ry="3" style="stroke:#038048;stroke-width:1.0;"/><text fill="#000000" font-family="sans-serif" font-size="14" lengthAdjust="spacing" textLength="153" x="3925" y="1353.2607">validateSignupForm()</text><ellipse cx="3916" cy="1366.2109" fill="#84BE84" rx="3" ry="3" style="stroke:#038048;stroke-width:1.0;"/><text fill="#000000" font-family="sans-serif" font-size="14" lengthAdjust="spacing" textLength="213" x="3925" y="1369.5576">createUser(context: Context)</text><ellipse cx="3916" cy="1382.5078" fill="#84BE84" rx="3" ry="3" style="stroke:#038048;stroke-width:1.0;"/><text fill="#000000" font-family="sans-serif" font-size="14" lengthAdjust="spacing" textLength="201" x="3925" y="1385.8545">loginUser(context: Context)</text><ellipse cx="3916" cy="1398.8047" fill="#84BE84" rx="3" ry="3" style="stroke:#038048;stroke-width:1.0;"/><text fill="#000000" font-family="sans-serif" font-size="14" lengthAdjust="spacing" textLength="525" x="3925" y="1402.1514">signInWithGoogleCredential(credential: AuthCredential, home: () -&gt; Unit)</text></g><!--link Composable to SplashScreen--><g id="link_Composable_SplashScreen"><path codeLine="13" d="M2626.31,511.39 C2379.21,538.1 2001.62,583.347 1676.5,641 C1650.12,645.678 1628.3386,649.942 1601.1286,655.733 " fill="none" id="Composable-to-SplashScreen" style="stroke:#181818;stroke-width:1.0;"/><polygon fill="#181818" points="1595.26,656.982,1604.8955,659.0209,1600.1505,655.9412,1603.2302,651.1961,1595.26,656.982" style="stroke:#181818;stroke-width:1.0;"/></g><!--link Composable to PrivacyPolicyScreen--><g id="link_Composable_PrivacyPolicyScreen"><path codeLine="14" d="M2626.13,531.75 C2473.36,560.289 2278.36,599.167 2106.5,641 C2077.24,648.122 2051.8101,654.944 2022.3701,663.337 " fill="none" id="Composable-to-PrivacyPolicyScreen" style="stroke:#181818;stroke-width:1.0;"/><polygon fill="#181818" points="2016.6,664.982,2026.3518,666.3613,2021.4084,663.6112,2024.1585,658.6678,2016.6,664.982" style="stroke:#181818;stroke-width:1.0;"/></g><!--link Composable to LoginScreen--><g id="link_Composable_LoginScreen"><path codeLine="15" d="M3158.8,498.09 C3423.9,516.24 3808.28,556.506 3929.5,641 C3983.19,678.422 3959.81,718.744 4000.5,770 C4032.12,809.834 4068.8571,844.3932 4105.0571,874.8232 " fill="none" id="Composable-to-LoginScreen" style="stroke:#181818;stroke-width:1.0;"/><polygon fill="#181818" points="4109.65,878.684,4105.3346,869.8309,4105.8226,875.4667,4100.1869,875.9547,4109.65,878.684" style="stroke:#181818;stroke-width:1.0;"/></g><!--link Composable to SignUpScreen--><g id="link_Composable_SignUpScreen"><path codeLine="16" d="M3158.83,489.99 C3460.34,501.36 3964.27,535.97 4384.5,641 C4601.33,695.191 4710.98,655.401 4850.5,830 C4938.4,939.996 4936.7872,1111.0362 4928.8972,1200.4782 " fill="none" id="Composable-to-SignUpScreen" style="stroke:#181818;stroke-width:1.0;"/><polygon fill="#181818" points="4928.37,1206.455,4933.1454,1197.8413,4928.8094,1201.4743,4925.1763,1197.1383,4928.37,1206.455" style="stroke:#181818;stroke-width:1.0;"/></g><!--link Composable to Home--><g id="link_Composable_Home"><path codeLine="17" d="M3127.99,581.155 C3177.32,601.402 3222.5894,619.9827 3268.0794,638.6547 " fill="none" id="Composable-to-Home" style="stroke:#181818;stroke-width:1.0;"/><polygon fill="#181818" points="3273.63,640.933,3266.823,633.8151,3269.0045,639.0344,3263.7852,641.2159,3273.63,640.933" style="stroke:#181818;stroke-width:1.0;"/></g><!--link Composable to NoteItem--><g id="link_Composable_NoteItem"><path codeLine="18" d="M2902.35,581.32 C2908.58,636.757 2917.52,707.51 2928.5,770 C2937.98,823.98 2951.7256,880.733 2960.0756,913.67 " fill="none" id="Composable-to-NoteItem" style="stroke:#181818;stroke-width:1.0;"/><polygon fill="#181818" points="2961.55,919.486,2963.2157,909.779,2960.3213,914.6393,2955.461,911.7449,2961.55,919.486" style="stroke:#181818;stroke-width:1.0;"/></g><!--link Composable to GoogleSignInButton--><g id="link_Composable_GoogleSignInButton"><path codeLine="19" d="M3158.72,510.15 C3382.46,534.64 3709.77,577.315 3990.5,641 C4019.18,647.506 4043.9299,654.3678 4072.2899,663.1738 " fill="none" id="Composable-to-GoogleSignInButton" style="stroke:#181818;stroke-width:1.0;"/><polygon fill="#181818" points="4078.02,664.953,4070.611,658.464,4073.2449,663.4703,4068.2387,666.1042,4078.02,664.953" style="stroke:#181818;stroke-width:1.0;"/></g><!--link Composable to DetailScreen--><g id="link_Composable_DetailScreen"><path codeLine="20" d="M2725.55,581.155 C2685.5,604.344 2649.2527,625.329 2613.6827,645.92 " fill="none" id="Composable-to-DetailScreen" style="stroke:#181818;stroke-width:1.0;"/><polygon fill="#181818" points="2608.49,648.926,2618.283,647.8788,2612.8172,646.421,2614.2751,640.9552,2608.49,648.926" style="stroke:#181818;stroke-width:1.0;"/></g><!--link Composable to ColorItem--><g id="link_Composable_ColorItem"><path codeLine="21" d="M2626.37,518.12 C2450.76,544.73 2240.33,586.483 2168.5,641 C2157.29,649.508 2077.6208,806.5232 2036.0508,889.3722 " fill="none" id="Composable-to-ColorItem" style="stroke:#181818;stroke-width:1.0;"/><polygon fill="#181818" points="2033.36,894.735,2040.9714,888.4847,2035.6023,890.266,2033.821,884.8969,2033.36,894.735" style="stroke:#181818;stroke-width:1.0;"/></g><!--link Navigation to NestedRoutes--><g id="link_Navigation_NestedRoutes"><path codeLine="61" d="M1114.5,326.07 C1114.5,372.84 1114.5,422.53 1114.5,453.25 " fill="none" id="Navigation-to-NestedRoutes" style="stroke:#181818;stroke-width:1.0;"/><polygon fill="#181818" points="1114.5,459.25,1118.5,450.25,1114.5,454.25,1110.5,450.25,1114.5,459.25" style="stroke:#181818;stroke-width:1.0;"/></g><!--link NestedRoutes to SplashScreen--><g id="link_NestedRoutes_SplashScreen"><path codeLine="63" d="M1144.15,507.63 C1189.33,542.88 1271.6593,607.1044 1330.7393,653.1954 " fill="none" id="NestedRoutes-to-SplashScreen" style="stroke:#181818;stroke-width:1.0;"/><polygon fill="#181818" points="1335.47,656.886,1330.8344,648.1963,1331.5278,653.8105,1325.9136,654.5039,1335.47,656.886" style="stroke:#181818;stroke-width:1.0;"/></g><!--link NestedRoutes to PrivacyPolicyScreen--><g id="link_NestedRoutes_PrivacyPolicyScreen"><path codeLine="64" d="M1181.25,502.58 C1286.65,531.23 1498.02,589.172 1676.5,641 C1702.65,648.595 1724.8346,655.1708 1751.5046,663.1978 " fill="none" id="NestedRoutes-to-PrivacyPolicyScreen" style="stroke:#181818;stroke-width:1.0;"/><polygon fill="#181818" points="1757.25,664.927,1749.7847,658.5029,1752.4622,663.486,1747.4791,666.1634,1757.25,664.927" style="stroke:#181818;stroke-width:1.0;"/></g><!--link NestedRoutes to AuthGraph--><g id="link_NestedRoutes_AuthGraph"><path codeLine="65" d="M1047.84,501.85 C927.421,533.21 674.6624,599.0143 488.5584,647.4673 " fill="none" id="NestedRoutes-to-AuthGraph" style="stroke:#181818;stroke-width:1.0;"/><polygon fill="#181818" points="482.752,648.979,492.4695,650.5824,487.5907,647.7192,490.4538,642.8404,482.752,648.979" style="stroke:#181818;stroke-width:1.0;"/></g><!--link NestedRoutes to HomeGraph--><g id="link_NestedRoutes_HomeGraph"><path codeLine="66" d="M1084.96,507.63 C1044.94,538.96 976.6733,592.4062 919.6013,637.0892 " fill="none" id="NestedRoutes-to-HomeGraph" style="stroke:#181818;stroke-width:1.0;"/><polygon fill="#181818" points="914.877,640.788,924.4293,638.3894,918.8139,637.7057,919.4976,632.0903,914.877,640.788" style="stroke:#181818;stroke-width:1.0;"/></g><!--link MainActivity to Navigation--><g id="link_MainActivity_Navigation"><path codeLine="75" d="M1114.5,104.3 C1114.5,122.42 1114.5,137.58 1114.5,157.87 " fill="none" id="MainActivity-to-Navigation" style="stroke:#181818;stroke-width:1.0;"/><polygon fill="#181818" points="1114.5,163.87,1118.5,154.87,1114.5,158.87,1110.5,154.87,1114.5,163.87" style="stroke:#181818;stroke-width:1.0;"/></g><!--link DetailScreen to DetailViewModel--><g id="link_DetailScreen_DetailViewModel"><path codeLine="102" d="M2512.5,762.13 C2512.5,782.435 2512.5,800.197 2512.5,823.685 " fill="none" id="DetailScreen-to-DetailViewModel" style="stroke:#181818;stroke-width:1.0;"/><polygon fill="#181818" points="2512.5,829.685,2516.5,820.685,2512.5,824.685,2508.5,820.685,2512.5,829.685" style="stroke:#181818;stroke-width:1.0;"/></g><!--link DetailScreen to ColorItem--><g id="link_DetailScreen_ColorItem"><path codeLine="103" d="M2393.93,762.13 C2307.96,802.467 2198.3419,853.9006 2116.5619,892.2686 " fill="none" id="DetailScreen-to-ColorItem" style="stroke:#181818;stroke-width:1.0;"/><polygon fill="#181818" points="2111.13,894.817,2120.9768,894.6156,2115.6566,892.6933,2117.5789,887.3731,2111.13,894.817" style="stroke:#181818;stroke-width:1.0;"/></g><!--link Home to HomeViewModel--><g id="link_Home_HomeViewModel"><path codeLine="129" d="M3421.5,770.054 C3418.64,795.993 3415.9476,820.4651 3412.8576,848.4871 " fill="none" id="Home-to-HomeViewModel" style="stroke:#181818;stroke-width:1.0;"/><polygon fill="#181818" points="3412.2,854.451,3417.1624,845.9436,3412.748,849.4811,3409.2106,845.0668,3412.2,854.451" style="stroke:#181818;stroke-width:1.0;"/></g><!--link Home to NoteItem--><g id="link_Home_NoteItem"><path codeLine="130" d="M3238.68,770.044 C3195.74,787.241 3151.16,807.434 3111.5,830 C3066.28,855.732 3024.3663,890.6585 2996.8763,915.3185 " fill="none" id="Home-to-NoteItem" style="stroke:#181818;stroke-width:1.0;"/><polygon fill="#181818" points="2992.41,919.325,3001.7805,916.2928,2996.1319,915.9862,2996.4384,910.3377,2992.41,919.325" style="stroke:#181818;stroke-width:1.0;"/></g><!--link Home to HomeRoutes--><g id="link_Home_HomeRoutes"><path codeLine="131" d="M3337.73,770.203 C3314.66,788.293 3290.71,808.857 3270.5,830 C3249.31,852.177 3232.585,875.2746 3217.875,897.8556 " fill="none" id="Home-to-HomeRoutes" style="stroke:#181818;stroke-width:1.0;"/><polygon fill="#181818" points="3214.6,902.883,3222.8641,897.5253,3217.3292,898.6935,3216.1609,893.1586,3214.6,902.883" style="stroke:#181818;stroke-width:1.0;"/></g><!--link GoogleSignInButton to LoginScreen--><g id="link_GoogleSignInButton_LoginScreen"><path codeLine="175" d="M4192.5,746.001 C4192.5,782.217 4192.5,830.488 4192.5,872.824 " fill="none" id="GoogleSignInButton-to-LoginScreen" style="stroke:#181818;stroke-width:1.0;"/><polygon fill="#181818" points="4192.5,878.824,4196.5,869.824,4192.5,873.824,4188.5,869.824,4192.5,878.824" style="stroke:#181818;stroke-width:1.0;"/></g><!--link LoginScreen to LoginViewModel--><g id="link_LoginScreen_LoginViewModel"><path codeLine="176" d="M4190.09,1008.369 C4188.9,1039.697 4187.6453,1072.8152 4186.2153,1110.8772 " fill="none" id="LoginScreen-to-LoginViewModel" style="stroke:#181818;stroke-width:1.0;"/><polygon fill="#181818" points="4185.99,1116.873,4190.3251,1108.0295,4186.1777,1111.8765,4182.3307,1107.7292,4185.99,1116.873" style="stroke:#181818;stroke-width:1.0;"/></g><!--link LoginScreen to SignUpScreen--><g id="link_LoginScreen_SignUpScreen"><path codeLine="177" d="M4338.71,1008.178 C4471.92,1066.197 4661.219,1148.6423 4788.309,1203.9913 " fill="none" id="LoginScreen-to-SignUpScreen" style="stroke:#181818;stroke-width:1.0;"/><polygon fill="#181818" points="4793.81,1206.387,4787.1557,1199.1261,4789.2259,1204.3906,4783.9614,1206.4607,4793.81,1206.387" style="stroke:#181818;stroke-width:1.0;"/></g><!--link LoginScreen to LoginRoutes--><g id="link_LoginScreen_LoginRoutes"><path codeLine="178" d="M4009.28,1008.157 C3961.23,1034.15 3915.16,1069.576 3887.5,1117 C3822.11,1229.102 3805.19,1308.661 3887.5,1409 C3942.33,1475.8475 4199.0802,1498.2928 4319.7102,1505.3194 " fill="none" id="LoginScreen-to-LoginRoutes" style="stroke:#181818;stroke-width:1.0;"/><polygon fill="#181818" points="4325.7,1505.6683,4316.9478,1501.1517,4320.7085,1505.3775,4316.4826,1509.1382,4325.7,1505.6683" style="stroke:#181818;stroke-width:1.0;"/></g><!--link SignUpScreen to LoginRoutes--><g id="link_SignUpScreen_LoginRoutes"><path codeLine="180" d="M4799.77,1319.634 C4689.84,1369.871 4538.0971,1439.2211 4452.7471,1478.2265 " fill="none" id="SignUpScreen-to-LoginRoutes" style="stroke:#181818;stroke-width:1.0;"/><polygon fill="#181818" points="4447.29,1480.7204,4457.1383,1480.6176,4451.8376,1478.6421,4453.8131,1473.3414,4447.29,1480.7204" style="stroke:#181818;stroke-width:1.0;"/></g><!--link PrivacyPolicyScreen to ColorItem--><g id="link_PrivacyPolicyScreen_ColorItem"><path codeLine="196" d="M1907.09,746.001 C1928.42,786.941 1959.0167,845.6324 1981.8267,889.3944 " fill="none" id="PrivacyPolicyScreen-to-ColorItem" style="stroke:#181818;stroke-width:1.0;"/><polygon fill="#181818" points="1984.6,894.715,1983.9872,884.8852,1982.2889,890.2811,1976.893,888.5829,1984.6,894.715" style="stroke:#181818;stroke-width:1.0;"/></g><!--link SplashScreen to ColorItem--><g id="link_SplashScreen_ColorItem"><path codeLine="205" d="M1520.18,754.116 C1626.67,795.115 1773.9706,851.8233 1880.4106,892.8013 " fill="none" id="SplashScreen-to-ColorItem" style="stroke:#181818;stroke-width:1.0;"/><polygon fill="#181818" points="1886.01,894.957,1879.0481,887.9906,1881.3439,893.1606,1876.1738,895.4564,1886.01,894.957" style="stroke:#181818;stroke-width:1.0;"/></g><!--SRC=[nLXVZzie47_Ff_2Zeqs_WAMxAisrtKZjTTLqxvvPCtNG4OWCJXkTxhiV37yCsDvqfKhTXnNC3CFmcnypE4newB-I5ggTF9sb8aySgdzNbVaxd3bHnqFR0uXQaCjE2jrBpg7VL4nza5q7T2_MQFlGimjfhm-Ii_OwjyIPcKLCUBKKVvBB5talJ_10EjXKt2h_Ol3jewJ0tO83wyJZUMc55w3NPH_MlZwQVr6EAwM6dOdsdqqbh9C_G1F6dHUHUNLUhFrUmwaMPg2iXmzITDw353Xmbk-bx3ZOoFVYpQ2r5BN22Te0TLPkFtyoYfCaFhl9dleJieve7yLESjbZ6AqT9Jl_jreb6NprwlSiVwLk9b-bIPAhYUSaAwNEebtA0dQbV8fKQP6YLEeY5giLYE7a0lui1vEUm63ZUJZ7uLvObD3MHfcPOjXZNgnXQ-1JbSUVIU4jCrgZ92STYeg4eYoZ84h6MxJ2EHdqyNrFpiTw7LU4UGne6un-D9vVS_DYlFVX48lntWRh9zxZbzyxSvA41CXdK1geuuzH9hFfnPjevwxUn2WcUQgAU0Q0Fn8cjgrc5wQl7kElh8Sdec0h2Bzgrgg0l3-50_JE58yUp1bhHIwMXKeJqS916r5JlHa4vV0QpvzjWGWahbmKAQu-YhcyEe1nE6BimtakDOtV80fUXsGrrK7tJ7HfqfggNbScp4V1T4B5meKFimTJLPYM_JM9-f4X32DGjjZiZaHqu4hlNb3utbHxeTV1vWlJ7BoDjkCGMhH0iZe36toX9vHQ0t_vxnJejvJfTmmuLTxUwfNNTw3HF8V1AuSpDU4lwtjGRlcMKg3sh8EgKnqUFwqxIRdDSZsMwJ7J4uDayLWLFFxJkfZSwa3Sz6AFidYtVPwc9QB1dLBM9CuDJTW8J23Cf92aR2gBoWBJiatdUMR332opyq7vSdWawj6EtP6u9CYAc1sJTgjsChjeabkp9JoNU_iQ-JJeDBcnGwzMc9bGQCQyH74qpGn3CNJkfetTOv0zXFm9RxsN5Y1EEjfBEdFHobAPQta9dTAccJblR04SfzLl9hadE3sPjAJoUbtsnSQ5FVBHB1K3vviohfnpam2Vm-G6xzgXxq4WXpAwHRnIKZALjQjjsy9Pnyn9WKmafr3K1Z-T5Bu74zqtsTF4zkn54zlSftl3tVQSMI_wDhanlV6KBreoln3ER1L5LD_9_bGN2hTRgccndzeJc2vXFgs-wwRQkS4wt6SByJC6Zlj_C_C0m8jXMZGr-MA4rsqSDlX265KRB2SBh4YVSfuJBxiOPPdDteO_a-3BPNMcefGVAMb1YBhnZAKw-uYPNHjgMeRVH5jqHmymlX4yXgwHEUYA3xZ6BOpVSPDpU_SpZyRPekSskVarNjGlt6bkYzdMdJvl5ojl-Mbpj_nh0WPpBvMU_u71l4Ibv404HfbjdeNtFm00]--></g></svg>